<svg width="23" height="23" xmlns="http://www.w3.org/2000/svg">
  <g>
    <path fill="#020054" d="m17.37795,1.29335l-1.95915,0l0,2.99628l1.95915,0l0,-2.99628zm3.34624,1.04757l-2.36666,0l0,2.84803l-3.91831,0l0,-2.84803l-5.87747,0l0,2.84624l-3.91635,0l0,-2.84624l-2.3696,0l0,19.36573l18.44838,0l0,-19.36573zm-0.97762,18.4673l-16.49021,0l0,-11.06421l16.48923,0l0,11.06421l0.00098,0zm-12.16439,-19.51487l-1.95916,0l0,2.99628l1.95916,0l0,-2.99628zm7.2763,17.41164l1.53598,0l0,-6.997l-1.25092,0c0,0.06019 -0.02057,0.15453 -0.05975,0.28031c-0.06465,0.20844 -0.16457,0.37644 -0.2929,0.50222c-0.18906,0.18328 -0.43395,0.30547 -0.73468,0.36656c-0.18906,0.03863 -0.52015,0.06738 -0.99329,0.08715l0,0.93617l1.79459,0l0,4.82459l0.00098,0zm-5.63747,-0.94605c-0.47901,0 -0.81011,-0.16891 -0.99231,-0.50672c-0.09894,-0.18238 -0.14694,-0.41418 -0.14694,-0.69449l-1.47329,0c0.02449,0.55703 0.14694,1.00714 0.36832,1.35124c0.42024,0.64777 1.16961,0.97031 2.24911,0.97031c0.87672,0 1.53696,-0.22461 1.98462,-0.67293c0.44571,-0.44922 0.67003,-0.96941 0.67003,-1.56058c0,-0.56332 -0.19102,-1.00714 -0.57403,-1.33148c-0.25567,-0.21562 -0.45159,-0.32344 -0.58971,-0.32344c0.18318,-0.06379 0.35754,-0.18508 0.52603,-0.36207c0.26645,-0.28211 0.39967,-0.6298 0.39967,-1.04218c0,-0.58129 -0.22334,-1.04578 -0.67003,-1.39167c-0.44669,-0.34679 -1.03444,-0.51929 -1.76324,-0.51929c-0.39183,0 -0.72293,0.04402 -0.99329,0.13117c-0.27036,0.08715 -0.5035,0.21203 -0.69942,0.37644c-0.26351,0.2318 -0.4555,0.48426 -0.57893,0.75738c-0.11461,0.31266 -0.18024,0.64238 -0.19396,0.99008l1.39982,0c-0.00686,-0.345 0.07249,-0.61902 0.23902,-0.82566c0.16555,-0.20574 0.42612,-0.30906 0.77876,-0.30906c0.30759,0 0.54758,0.08445 0.71607,0.25066c0.17045,0.16801 0.25469,0.38453 0.25469,0.65226c0,0.41148 -0.16555,0.6855 -0.49762,0.82027c-0.192,0.08086 -0.53191,0.12398 -1.01778,0.13027l0,0.98468c0.49664,0 0.86007,0.04402 1.09125,0.13117c0.40554,0.15453 0.60832,0.46179 0.60832,0.92179c0,0.34769 -0.10971,0.61363 -0.32816,0.79871c-0.21747,0.18148 -0.47314,0.27312 -0.76701,0.27312z"/>
  </g>
</svg>