<svg width="32" height="32" xmlns="http://www.w3.org/2000/svg">
  <g>
    <path fill="#030054" d="m2,4.616l0,17.50324l4.38356,0l0,5.26476l8.96938,-5.26476l14.64706,0l0,-17.50324l-28,0zm8.66505,10.28798c-1.0322,0 -1.86894,-0.73379 -1.86894,-1.63898s0.83674,-1.63898 1.86894,-1.63898s1.86893,0.73378 1.86893,1.63898s-0.83674,1.63898 -1.86893,1.63898zm5.57281,0c-1.03219,0 -1.86893,-0.73379 -1.86893,-1.63898s0.83674,-1.63898 1.86893,-1.63898s1.86894,0.73378 1.86894,1.63898s-0.83675,1.63898 -1.86894,1.63898zm5.50486,0c-1.03219,0 -1.86894,-0.73379 -1.86894,-1.63898s0.83675,-1.63898 1.86894,-1.63898s1.86893,0.73378 1.86893,1.63898s-0.83674,1.63898 -1.86893,1.63898z"/>
 </g>
</svg>