<svg width="32" height="32" xmlns="http://www.w3.org/2000/svg">
  <g>
    <path fill="#030054" d="m26.72027,11.98112l-3.52625,0l0,-3.06l0.7726,-2.52671l0,-2.90657l-4.93881,0c0,0 -1.26656,2.66779 -1.71262,3.69884c-1.46826,3.39441 -2.98532,6.90167 -6.11883,7.48527l0,-1.50429l-9.1547,0l0,14.81375l9.1547,0l0,-1.28016l3.10546,0l3.45136,1.81092l8.39763,0l3.80751,-3.2608l0,-11.24981l-3.23806,-2.02043zm-8.42527,14.64455l-3.35366,-1.81105l-3.73684,0.00377l0,-8.23443c0.0311,-0.00402 0.06539,-0.00863 0.10218,-0.01396c4.3512,-0.62437 6.19797,-4.89396 7.82736,-8.66104c0.30573,-0.70676 0.95493,-2.12165 1.14486,-2.53463l1.71877,0l0,0.96444l-0.77244,2.52677l0,5.00206l4.97187,0l1.79229,1.09585l0,9.58212l-2.47759,2.08004l-7.2168,0l0,0.00006z" stroke-linejoin="round" stroke-linecap="round"/>
  </g>
</svg>