<svg width="32" height="32" xmlns="http://www.w3.org/2000/svg">
 <g>
  <path stroke="#010121" fill="#051333" d="m24.40297,15.50047l0,-4.19958c0,-4.21508 -3.79223,-7.64382 -8.45416,-7.64382s-8.45417,3.42874 -8.45417,7.64382l0,4.19958l-1.98423,0l0,12.99061l20.87679,0l0,-12.99061l-1.98422,0l-0.00001,0zm-13.57429,-4.19958c0,-2.55282 2.29668,-4.62935 5.12013,-4.62935s5.12012,2.07653 5.12012,4.62935l0,4.19958l-10.24026,0l0,-4.19958l0.00001,0zm7.28439,14.20931l-4.32948,0l1.16405,-3.15829c-0.74492,-0.33504 -1.26122,-1.02319 -1.26122,-1.82504c0,-1.12999 1.0126,-2.04553 2.26239,-2.04553s2.26237,0.91467 2.26237,2.04553c0,0.80271 -0.5163,1.49001 -1.26122,1.82504l1.1631,3.15829l-0.00001,0z" opacity="0.68" stroke-linejoin="round" stroke-linecap="round"/>
 </g>
</svg>