<svg width="32" height="32" xmlns="http://www.w3.org/2000/svg">
 <g>
  <g>
   <path stroke="#010121" stroke-linecap="round" stroke-linejoin="round" opacity="0.68" d="m27.23929,3.5625l0,1.27741l-4.31522,0l0,-1.27741l-14.02542,0l0,1.27741l-4.31522,0l0,-1.27741l-0.95894,0l0,24.8125l0.95894,0l0,-1.2774l4.31522,0l0,1.2774l14.02446,0l0,-1.2774l4.31522,0l0,1.2774l1.19867,0l0,-24.8125l-1.19771,0zm-18.34063,22.00314l-4.31522,0l0,-3.64889l4.31522,0l0,3.64889zm0,-5.18202l-4.31522,0l0,-3.6489l4.31522,0l0,3.6489zm0,-5.18085l-4.31522,0l0,-3.6489l4.31522,0l0,3.6489zm0,-5.18202l-4.31522,0l0,-3.6489l4.31522,0l0,3.6489zm3.05421,11.89132l0,-12.65263l8.99675,6.32631l-8.99675,6.32631zm15.28642,3.65356l-4.31522,0l0,-3.64889l4.31522,0l0,3.64889zm0,-5.18202l-4.31522,0l0,-3.6489l4.31522,0l0,3.6489zm0,-5.18085l-4.31522,0l0,-3.6489l4.31522,0l0,3.6489zm0,-5.18202l-4.31522,0l0,-3.6489l4.31522,0l0,3.6489z" fill="#051333"/>
  </g>
 </g>
</svg>