<svg width="23" height="23" xmlns="http://www.w3.org/2000/svg">
  <g>
    <g>
      <path fill="#040054" d="m10.02113,3.019c0.35177,-0.44307 0.89866,-0.70312 1.47882,-0.70312c0.58017,0 1.12705,0.26005 1.47882,0.70312c0.49299,0.62102 1.34897,0.86237 2.1133,0.59591c0.54531,-0.19012 1.15183,-0.12488 1.63984,0.1763c0.48809,0.30122 0.80179,0.80397 0.84825,1.3593c0.06509,0.77843 0.64934,1.42593 1.44238,1.59865c0.5658,0.12323 1.03927,0.49295 1.28029,0.99978c0.24102,0.50678 0.22191,1.09258 -0.05163,1.58393c-0.3834,0.68867 -0.25648,1.53672 0.31348,2.0937c0.40665,0.39742 0.59679,0.95432 0.51423,1.5058c-0.08256,0.55148 -0.42841,1.03437 -0.93514,1.3057c-0.71024,0.38025 -1.08083,1.15957 -0.91497,1.92408c0.1183,0.54544 -0.03522,1.11267 -0.41513,1.53377c-0.3799,0.42105 -0.94269,0.64772 -1.52168,0.61283c-0.81158,-0.04887 -1.56208,0.41433 -1.85295,1.14363c-0.20751,0.52029 -0.65596,0.91776 -1.21264,1.07478c-0.55663,0.15697 -1.15771,0.05539 -1.62516,-0.27456c-0.65517,-0.46248 -1.54731,-0.46248 -2.20253,0c-0.46745,0.32995 -1.06853,0.43152 -1.62516,0.27456c-0.55663,-0.15702 -1.00512,-0.55448 -1.21264,-1.07478c-0.29087,-0.72929 -1.04137,-1.19245 -1.8529,-1.14363c-0.57904,0.03485 -1.14181,-0.19177 -1.52172,-0.61283c-0.37991,-0.42109 -0.53343,-0.98832 -0.41508,-1.53377c0.16587,-0.76452 -0.20477,-1.54384 -0.91497,-1.92408c-0.50673,-0.27129 -0.85259,-0.75418 -0.93514,-1.3057s0.10762,-1.10838 0.51423,-1.5058c0.56991,-0.55699 0.69687,-1.40503 0.31347,-2.0937c-0.27359,-0.49135 -0.29269,-1.07715 -0.05167,-1.58393c0.24102,-0.50682 0.71448,-0.87655 1.28029,-0.99978c0.79303,-0.17267 1.37725,-0.82017 1.44238,-1.59865c0.04649,-0.55533 0.36015,-1.05804 0.84824,-1.3593c0.48804,-0.30118 1.09453,-0.36642 1.63988,-0.1763c0.76424,0.2665 1.62022,0.02511 2.1132,-0.59591l-0.00001,0l0.00002,0z"/>
    </g>
    <g>
      <path stroke="#ffffff" fill="#ffffff" d="m6.0678,11.17952l1.18927,-1.36205l3.25795,3.72946l5.43087,-6.21579l1.1897,1.3611l-6.62057,7.57885l-4.44722,-5.09157l0.00001,0.00001z" stroke-linejoin="round" stroke-linecap="round"/>
    </g>
  </g>
</svg>