<svg width="32" height="32" xmlns="http://www.w3.org/2000/svg">
  <g>
    <path clip-rule="evenodd" d="m21.45577,9.47358c0,0.78312 0.6113,1.41876 1.36416,1.41876c0.75273,0 1.36404,-0.6357 1.36404,-1.41876c0,-0.78318 -0.61131,-1.41888 -1.36404,-1.41888c-0.75291,0 -1.36416,0.6357 -1.36416,1.41888zm-13.6395,7.66159l0,1.56067c0,0.70385 0.55091,1.27684 1.22755,1.27684l15.14009,0l-5.2162,-5.33466c-0.43645,-0.45418 -1.13483,-0.45418 -1.57055,0l-1.10246,1.1293l-2.78272,-2.83183c-0.43639,-0.45418 -1.22179,-0.45418 -1.65276,0l-4.04295,4.19968zm-4.91024,9.64777c0,1.25422 0.97665,2.27002 2.18223,2.27002l21.82348,0c1.2057,0 2.18223,-1.0158 2.18223,-2.27002l0,-21.56581c0,-1.25422 -0.97653,-2.27008 -2.18223,-2.27008l-21.82343,0c-1.20563,0 -2.18222,1.01592 -2.18222,2.27008l0,21.56581l-0.00006,0zm3.92836,-20.9982l18.33134,0c0.6656,0 1.2004,0.55606 1.2004,1.2486l0,13.96082c0,0.69224 -0.5348,1.24847 -1.2004,1.24847l-18.33134,0c-0.66553,0 -1.20046,-0.55624 -1.20046,-1.24847l0,-13.96082c-0.00006,-0.69254 0.53492,-1.2486 1.20046,-1.2486z" fill="#555e74" fill-rule="evenodd" stroke-width="3"/>
  </g>
</svg>