<svg width="32" height="32" xmlns="http://www.w3.org/2000/svg">
  <g>
    <path fill-rule="evenodd" fill="#555e74" d="m12.69723,14.64048c0,1.16388 0.73237,2.17004 1.80148,2.66493l0,7.93937c0,0.59807 -0.5407,1.08769 -1.2009,1.08769l-3.30277,0c-0.82853,0 -1.50115,0.60903 -1.50115,1.35968c0,0.75034 0.67262,1.35937 1.50115,1.35937l12.00953,0c0.8288,0 1.50136,-0.60903 1.50136,-1.35937c0,-0.75065 -0.67256,-1.35968 -1.50136,-1.35968l-3.30264,0c-0.66013,0 -1.20077,-0.48961 -1.20077,-1.08769l0,-7.93937c1.06845,-0.49488 1.80129,-1.50105 1.80129,-2.66493c0,-1.65326 -1.4771,-2.99097 -3.30258,-2.99097c-1.82554,0 -3.30264,1.33771 -3.30264,2.99097zm-4.80386,0.10882c0,1.35949 0.40224,2.63201 1.09898,3.73071l0.09029,0.12486c0.24566,0.44544 0.75054,0.75035 1.33288,0.75035c0.82854,0 1.50116,-0.61453 1.50116,-1.37541c0,-0.26139 -0.07858,-0.50607 -0.21625,-0.71264l-0.16253,-0.2502c-0.40805,-0.67445 -0.64202,-1.44664 -0.64202,-2.26767c0,-2.57779 2.28812,-4.73126 5.10413,-4.73126c2.81593,0 5.10412,2.15347 5.10412,4.73126c0,0.82103 -0.23456,1.59322 -0.64268,2.26767l-0.16179,0.2502c-0.13846,0.20656 -0.21645,0.45125 -0.21645,0.71264c0,0.76094 0.67255,1.37541 1.50129,1.37541c0.58214,0 1.08643,-0.30491 1.33289,-0.75035l0.09015,-0.12486c0.69675,-1.0987 1.09905,-2.37122 1.09905,-3.73071c0,-4.09511 -3.62689,-7.45036 -8.10657,-7.45036c-4.47968,0 -8.10663,3.35524 -8.10663,7.45036zm-4.8038,0c0,2.65895 0.96052,5.11151 2.58838,7.08595l0.10793,0.13605c0.26966,0.33663 0.71426,0.55444 1.20685,0.55444c0.82854,0 1.50116,-0.61459 1.50116,-1.3702c0,-0.31538 -0.11374,-0.60981 -0.31202,-0.84324l-0.11428,-0.14131c-1.24327,-1.51147 -1.9757,-3.38817 -1.9757,-5.42168c0,-5.00318 4.43738,-9.08183 9.90805,-9.08183c5.47008,0 9.90786,4.07865 9.90786,9.08183c0,2.03351 -0.73283,3.91022 -1.97557,5.42168l-0.11434,0.14131c-0.19801,0.23344 -0.31189,0.52787 -0.31189,0.84324c0,0.75561 0.67249,1.3702 1.50129,1.3702c0.49193,0 0.93693,-0.21781 1.20685,-0.55444l0.10786,-0.13605c1.62786,-1.97438 2.58845,-4.42701 2.58845,-7.08595c0,-6.52051 -5.78276,-11.80081 -12.91043,-11.80081c-7.12787,0.00001 -12.91043,5.28037 -12.91043,11.80081z" clip-rule="evenodd"/>
  </g>
</svg>