<svg width="32" height="32" xmlns="http://www.w3.org/2000/svg">
 <g>
  <g id="svg_1">
   <path stroke="#010121" id="svg_2" fill="#051333" d="m21.285614,12.021499c0,0 0.912848,-4.211509 0,-5.638155c-0.913912,-1.426646 -1.278404,-2.376908 -3.287947,-3.057237s-1.277334,-0.544748 -2.73853,-0.475164c-1.461197,0.068401 -2.679396,0.950299 -2.679396,1.425444c0,0 -0.912842,0.068401 -1.27733,0.476328c-0.365567,0.407965 -0.974133,2.308545 -0.974133,2.784882s0.304278,3.669195 0.608556,4.34833l-0.362342,0.135555c-0.304278,3.939151 1.217121,4.415518 1.217121,4.415518c0.547275,3.669176 1.095628,2.106958 1.095628,3.057238s-0.548353,0.611938 -0.548353,0.611938s-0.485986,1.493824 -1.703108,2.037359c-1.21712,0.542336 -7.973674,3.462809 -8.523088,4.074728c-0.549423,0.613131 -0.487066,3.4652 -0.487066,3.4652l28.973359,0c0,0 0.063448,-2.85207 -0.485987,-3.4652c-0.550508,-0.613132 -7.30706,-3.532393 -8.524183,-4.074728c-1.217123,-0.543535 -1.703108,-2.037359 -1.703108,-2.037359s-0.548347,0.338362 -0.548347,-0.611938s0.548347,0.611938 1.096704,-3.057238c0,0 1.52033,-0.476349 1.217119,-4.415518l-0.36557,0l0.000011,0.000016l-0.000011,0z" opacity="0.68" stroke-linejoin="round" stroke-linecap="round"/>
  </g>
 </g>
</svg>