<svg width="32" height="32" xmlns="http://www.w3.org/2000/svg">
 <g>
   <path stroke="#010121" fill="#051333" d="m14.70641,19.04169c0.00248,0.43517 -0.16055,0.87118 -0.49155,1.20243l-5.02038,5.03703c-0.65664,0.65877 -1.72188,0.65835 -2.37894,-0.00041c-0.65623,-0.65918 -0.65623,-1.72745 0,-2.38581l5.02079,-5.03703c0.32853,-0.32959 0.75899,-0.49356 1.18906,-0.49398l-0.00165,-0.00165l2.09746,-2.10425c-1.17378,-0.95151 -2.89814,-0.88029 -3.98898,0.21407l-6.6948,6.71604c-1.16719,1.17097 -1.1676,3.06984 0,4.2408l1.23322,1.23762c1.16719,1.17096 3.05993,1.17054 4.22712,-0.00041l6.6948,-6.71645c1.09289,-1.09643 1.16223,-2.83217 0.20761,-4.00975l-2.09375,2.10176l-0.00002,-0.00001z" stroke-linejoin="round" stroke-linecap="round"/>
   <path stroke="#010121" fill="#051333" d="m22.03475,4.53428l-6.69439,6.71563c-1.09125,1.09478 -1.16182,2.82471 -0.2142,4.00271l2.09994,-2.10673c0.00082,-0.4302 0.16468,-0.86083 0.49196,-1.18918l5.0212,-5.03662c0.65623,-0.65877 1.72106,-0.65877 2.37811,0c0.65664,0.65877 0.65705,1.72745 0.00041,2.38623l-5.02079,5.03661c-0.33059,0.33249 -0.76519,0.49563 -1.19855,0.49315l-2.09416,2.10093c1.17378,0.95772 2.90351,0.88815 3.99723,-0.20911l6.69439,-6.71604c1.16718,-1.17137 1.1676,-3.06983 0.00041,-4.2408l-1.23363,-1.23762c-1.16801,-1.17096 -3.06076,-1.17054 -4.22794,0.00083z" stroke-linejoin="round" stroke-linecap="round"/>
   <path stroke="#010121" fill="#051333" d="m21.4268,10.62138c0.4247,0.42606 0.36279,1.18007 -0.13867,1.68315l-9.08571,9.11552c-0.50187,0.5035 -1.25303,0.5652 -1.67772,0.13912l0,0c-0.42428,-0.42566 -0.36278,-1.17924 0.1395,-1.68273l9.08571,-9.1151c0.50146,-0.50349 1.25261,-0.56602 1.6769,-0.13995l0,0l-0.00001,-0.00001z" stroke-linejoin="round" stroke-linecap="round"/>
 </g>
</svg>