<svg width="32" height="32" xmlns="http://www.w3.org/2000/svg">
 <g>
  <g id="svg_1">
   <path stroke-linecap="round" stroke-linejoin="round" stroke="#010121" d="m14.6835,19.14954c0.00259,0.46592 -0.16772,0.93274 -0.51349,1.28739l-5.24444,5.39293c-0.68595,0.70532 -1.79873,0.70487 -2.48511,-0.00044c-0.68552,-0.70576 -0.68552,-1.84951 0,-2.55438l5.24487,-5.39294c0.34319,-0.35288 0.79287,-0.52843 1.24213,-0.52888l-0.00172,-0.00177l2.19107,-2.25293c-1.22617,-1.01874 -3.02749,-0.94249 -4.16701,0.2292l-6.99359,7.19058c-1.21928,1.2537 -1.21971,3.28674 0,4.54044l1.28826,1.32507c1.21928,1.2537 3.1965,1.25325 4.41578,-0.00044l6.99359,-7.19102c1.14167,-1.1739 1.2141,-3.03228 0.21687,-4.29307l-2.18719,2.25027z" fill="#051333"/>
   <path stroke-linecap="round" stroke-linejoin="round" stroke="#010121" d="m22.3389,3.61708l-6.99316,7.19014c-1.13995,1.17213 -1.21367,3.0243 -0.22376,4.28553l2.19366,-2.25559c0.00086,-0.4606 0.17203,-0.92165 0.51392,-1.2732l5.2453,-5.39249c0.68552,-0.70532 1.79787,-0.70532 2.48425,0c0.68595,0.70532 0.68638,1.84951 0.00043,2.55483l-5.24487,5.39249c-0.34534,0.35598 -0.79934,0.53065 -1.25204,0.52799l-2.18762,2.24938c1.22617,1.02539 3.0331,0.95091 4.17563,-0.22388l6.99316,-7.19058c1.21927,-1.25414 1.21971,-3.28674 0.00043,-4.54044l-1.28869,-1.32507c-1.22014,-1.2537 -3.19736,-1.25325 -4.41664,0.00089z" fill="#051333"/>
   <path stroke-linecap="round" stroke-linejoin="round" stroke="#010121" d="m21.70382,10.13427c0.44365,0.45617 0.37898,1.26345 -0.14486,1.80208l-9.49121,9.7596c-0.52427,0.53907 -1.30895,0.60513 -1.7526,0.14895l0,0c-0.44322,-0.45573 -0.37897,-1.26256 0.14573,-1.80163l9.49121,-9.75915c0.52384,-0.53907 1.30852,-0.60601 1.75174,-0.14984l0,0z" fill="#051333"/>
  </g>
 </g>
</svg>